<svg xmlns="http://www.w3.org/2000/svg" viewBox="0 0 24 24" fill="#00c4cc"><path d="M12 0C5.373 0 0 5.373 0 12s5.373 12 12 12 12-5.373 12-12S18.627 0 12 0zm4.027 16.27c-.34.527-.867.948-1.387 1.2-.533.24-1.12.36-1.733.36-2.427 0-4.507-2.187-4.507-5.04 0-1.827.84-3.407 2.107-4.347.56-.413 1.2-.68 1.867-.76.267-.027.4.12.4.307 0 .213-.16.44-.36.6-.667.533-1.12 1.493-1.12 2.533 0 2 1.36 3.72 3.12 3.72.467 0 .893-.12 1.24-.347.36-.24.467-.467.56-.467.16 0 .307.173.307.387 0 .307-.16.573-.493.853z"/></svg>
