<svg xmlns="http://www.w3.org/2000/svg" viewBox="0 0 24 24" fill="#000"><path d="M4.459 4.208c.746.606 1.026.56 2.428.466l13.215-.793c.28 0 .047-.28-.046-.326L18.12 2.168c-.42-.326-.98-.7-2.054-.607L3.06 2.71c-.467.047-.56.28-.374.466zm.793 3.08v13.908c0 .746.373 1.027 1.214.98l14.523-.84c.84-.047.933-.56.933-1.167V6.354c0-.606-.233-.933-.746-.886l-15.177.886c-.56.047-.747.327-.747.934zm14.337.745c.093.42 0 .84-.42.886l-.7.14v10.264c-.608.327-1.168.514-1.635.514-.747 0-.933-.234-1.494-.934L10.87 12.17v6.606l1.447.326s0 .84-1.168.84l-3.222.186c-.093-.186 0-.653.327-.746l.84-.233V9.855L7.83 9.762c-.094-.42.14-1.026.793-1.073l3.456-.233 5.034 7.686V9.995l-1.214-.14c-.093-.513.28-.886.747-.933zM2.8 1.4L17.2.12c1.773-.14 2.24.046 2.986.606l4.12 2.893c.98.7 1.307 1.12 1.307 2.053v15.694c0 .98-.374 1.634-1.68 1.727L7.84 24.12c-.98.047-1.447-.093-1.96-.747L1.88 18.34c-.56-.746-.793-1.307-.793-1.96V3.314C1.087 2.38 1.46 1.54 2.8 1.4z"/></svg>
